<svg width="351" height="264" viewBox="0 0 351 264" fill="none" xmlns="http://www.w3.org/2000/svg">
<mask id="mask0_23_497" style="mask-type:luminance" maskUnits="userSpaceOnUse" x="0" y="0" width="351" height="264">
<rect x="0.5" y="0.75" width="350" height="262.5" fill="white"/>
</mask>
<g mask="url(#mask0_23_497)">
<rect x="112.846" y="70.5497" width="9.88865" height="13.5312" rx="4.62153" fill="white" stroke="black" stroke-width="1.6" stroke-linecap="round" stroke-linejoin="round"/>
<rect x="112.846" y="86.0941" width="9.88865" height="13.5312" rx="4.62153" fill="white" stroke="black" stroke-width="1.6" stroke-linecap="round" stroke-linejoin="round"/>
<rect x="115.417" y="33.4318" width="108.3" height="203.563" rx="15.9182" fill="white"/>
<mask id="mask1_23_497" style="mask-type:luminance" maskUnits="userSpaceOnUse" x="115" y="33" width="109" height="204">
<rect x="115.417" y="33.4318" width="108.3" height="203.563" rx="15.9182" fill="white"/>
</mask>
<g mask="url(#mask1_23_497)">
<path d="M167.74 28.9105C152.488 40.7915 209.32 30.3064 218.13 41.5836C229.422 56.0389 225.664 82.6592 225.664 82.6592L234.366 38.4117L196.289 19.8017" fill="#D6DCF2"/>
</g>
<rect x="115.417" y="33.4318" width="108.3" height="203.563" rx="15.9182" stroke="black" stroke-width="1.6" stroke-linecap="round" stroke-linejoin="round"/>
<path d="M205.439 38.4117H198.35C196.067 38.4117 194.216 40.299 194.216 42.6271C194.216 44.9552 192.366 46.8425 190.082 46.8425H149.052C146.769 46.8425 144.918 44.9552 144.918 42.6271C144.918 40.299 143.067 38.4117 140.784 38.4117H133.696C126.686 38.4117 121.004 44.2059 121.004 51.3533V216.064C121.004 223.212 126.686 229.006 133.696 229.006H205.438C212.448 229.006 218.13 223.212 218.13 216.064V51.3532C218.13 44.2058 212.448 38.4117 205.439 38.4117Z" fill="#1AB995"/>
<path fill-rule="evenodd" clip-rule="evenodd" d="M205.439 38.4117H198.35C196.067 38.4117 194.216 40.299 194.216 42.6271V42.6271C194.216 44.9552 192.366 46.8425 190.082 46.8425H149.052C146.769 46.8425 144.918 44.9552 144.918 42.6271V42.6271C144.918 40.299 143.067 38.4117 140.784 38.4117H133.696C126.686 38.4117 121.004 44.2059 121.004 51.3533V216.064C121.004 223.212 126.686 229.006 133.696 229.006H205.438C212.448 229.006 218.13 223.212 218.13 216.064V51.3532C218.13 44.2058 212.448 38.4117 205.439 38.4117Z" stroke="black" stroke-width="1.6" stroke-linecap="round" stroke-linejoin="round"/>
<path d="M170.555 173.864C168.776 175.324 166.824 176.558 164.742 177.538" stroke="black" stroke-width="1.6" stroke-linecap="round" stroke-linejoin="round"/>
<path d="M144.806 212.059L119.409 166.545L118.402 164.385V119.34H96.1199V164.385L95.1128 166.545L69.7149 212.059C63.4485 223.289 71.556 237.123 84.4034 237.123H130.118C142.965 237.123 151.073 223.289 144.806 212.059Z" fill="white"/>
<mask id="mask2_23_497" style="mask-type:luminance" maskUnits="userSpaceOnUse" x="67" y="119" width="80" height="119">
<path fill-rule="evenodd" clip-rule="evenodd" d="M144.806 212.059L119.409 166.545L118.402 164.385V119.34H96.1199V164.385L95.1128 166.545L69.7149 212.059C63.4485 223.289 71.556 237.123 84.4034 237.123H130.118C142.965 237.123 151.073 223.289 144.806 212.059Z" fill="white"/>
</mask>
<g mask="url(#mask2_23_497)">
<path d="M94.6633 151.508C95.2968 138.122 98.2714 124.179 109.992 122.104C121.712 120.029 97.8021 120.029 97.8021 120.029L89.5447 121.036" fill="#D6DCF2"/>
</g>
<path fill-rule="evenodd" clip-rule="evenodd" d="M144.806 212.059L119.409 166.545L118.402 164.385V119.34H96.1199V164.385L95.1128 166.545L69.7149 212.059C63.4485 223.289 71.556 237.123 84.4034 237.123H130.118C142.965 237.123 151.073 223.289 144.806 212.059Z" stroke="black" stroke-width="1.6" stroke-linecap="round" stroke-linejoin="round"/>
<path d="M112.717 196.867C101.661 187.992 92.9166 188.091 82.7271 192.376L72.5242 210.66C66.7267 221.049 74.2276 233.848 86.1139 233.848H128.408C140.294 233.848 147.795 221.049 141.997 210.66L133.613 195.635C127.221 200.07 120.687 203.265 112.717 196.867Z" fill="#1A80FD"/>
<mask id="mask3_23_497" style="mask-type:luminance" maskUnits="userSpaceOnUse" x="70" y="189" width="74" height="45">
<path fill-rule="evenodd" clip-rule="evenodd" d="M112.717 196.867C101.661 187.992 92.9166 188.091 82.7271 192.376L72.5242 210.66C66.7267 221.049 74.2276 233.848 86.1139 233.848H128.408C140.294 233.848 147.795 221.049 141.997 210.66L133.613 195.635C127.221 200.07 120.687 203.265 112.717 196.867Z" fill="white"/>
</mask>
<g mask="url(#mask3_23_497)">
<path d="M87.3165 189.098C71.3382 230.889 111.721 228.384 136.612 231.533C161.502 234.683 111.214 240.719 107.261 240.457C103.307 240.195 65.5589 232.846 63.9861 232.583C62.4132 232.321 56.3841 207.649 61.889 201.35C67.3938 195.051 72.3745 186.652 72.3745 186.652" fill="#1D62FC"/>
</g>
<path fill-rule="evenodd" clip-rule="evenodd" d="M112.717 196.867C101.661 187.992 92.9166 188.091 82.7271 192.376L72.5242 210.66C66.7267 221.049 74.2276 233.848 86.1139 233.848H128.408C140.294 233.848 147.795 221.049 141.997 210.66L133.613 195.635C127.221 200.07 120.687 203.265 112.717 196.867Z" stroke="black" stroke-width="1.6" stroke-linecap="round" stroke-linejoin="round"/>
<rect x="92.8098" y="117.953" width="28.9017" height="4.1504" rx="2.0752" fill="white" stroke="black" stroke-width="1.6" stroke-linecap="round" stroke-linejoin="round"/>
<ellipse cx="94.6633" cy="209.226" rx="1.10345" ry="1.10482" fill="white" stroke="black" stroke-width="1.6" stroke-linecap="round" stroke-linejoin="round"/>
<ellipse cx="107.239" cy="208.442" rx="1.5249" ry="1.52678" fill="white" stroke="black" stroke-width="1.6" stroke-linecap="round" stroke-linejoin="round"/>
<ellipse cx="97.3802" cy="215.535" rx="0.943119" ry="0.944283" fill="white" stroke="black" stroke-width="1.6" stroke-linecap="round" stroke-linejoin="round"/>
<ellipse cx="132.733" cy="217.557" rx="3.63058" ry="3.63508" fill="white" stroke="black" stroke-width="1.6" stroke-linecap="round" stroke-linejoin="round"/>
<path d="M103.039 138.448L100.146 142.388" stroke="black" stroke-width="1.6" stroke-linecap="round" stroke-linejoin="round"/>
<path d="M129.507 206.537L125.573 209.437" stroke="black" stroke-width="1.6" stroke-linecap="round" stroke-linejoin="round"/>
<path d="M191.823 103.243H134.259C132.635 103.244 131.32 104.561 131.321 106.185V132.565C131.32 134.188 132.635 135.505 134.259 135.506H171.889C173.405 137.423 175.135 139.607 176.393 141.194C176.974 141.927 178.145 141.506 178.145 140.57V135.506H191.823C193.446 135.505 194.761 134.188 194.76 132.565V106.185C194.761 104.561 193.446 103.244 191.823 103.243V103.243Z" fill="#FCB006"/>
<mask id="mask4_23_497" style="mask-type:luminance" maskUnits="userSpaceOnUse" x="131" y="103" width="64" height="39">
<path fill-rule="evenodd" clip-rule="evenodd" d="M191.823 103.243H134.259C132.635 103.244 131.32 104.561 131.321 106.185V132.565C131.32 134.188 132.635 135.505 134.259 135.506H171.889C173.405 137.423 175.135 139.607 176.393 141.194C176.974 141.927 178.145 141.506 178.145 140.57V135.506H191.823C193.446 135.505 194.761 134.188 194.76 132.565V106.185C194.761 104.561 193.446 103.244 191.823 103.243V103.243Z" fill="white"/>
</mask>
<g mask="url(#mask4_23_497)">
<path d="M194.761 101.253C194.361 141.298 124.624 134.727 124.624 134.727L182.464 150.745L201.539 147.87L206.052 101.663" fill="#FDD504"/>
</g>
<path fill-rule="evenodd" clip-rule="evenodd" d="M191.823 103.243H134.259C132.635 103.244 131.32 104.561 131.321 106.185V132.565C131.32 134.188 132.635 135.505 134.259 135.506H171.889C173.405 137.423 175.135 139.607 176.393 141.194C176.974 141.927 178.145 141.506 178.145 140.57V135.506H191.823C193.446 135.505 194.761 134.188 194.76 132.565V106.185C194.761 104.561 193.446 103.244 191.823 103.243V103.243Z" stroke="black" stroke-width="1.6" stroke-linecap="round" stroke-linejoin="round"/>
<ellipse cx="144.13" cy="118.492" rx="2.9346" ry="2.93822" fill="white" stroke="black" stroke-width="1.6" stroke-linecap="round" stroke-linejoin="round"/>
<ellipse cx="156.397" cy="118.492" rx="2.9346" ry="2.93822" fill="white" stroke="black" stroke-width="1.6" stroke-linecap="round" stroke-linejoin="round"/>
<ellipse cx="168.665" cy="118.492" rx="2.9346" ry="2.93822" fill="white" stroke="black" stroke-width="1.6" stroke-linecap="round" stroke-linejoin="round"/>
<ellipse cx="180.933" cy="118.492" rx="2.9346" ry="2.93822" fill="white" stroke="black" stroke-width="1.6" stroke-linecap="round" stroke-linejoin="round"/>
<path d="M148.421 107.708L143.71 111.123" stroke="black" stroke-width="1.6" stroke-linecap="round" stroke-linejoin="round"/>
<path d="M183.479 128.038L180.689 129.081" stroke="black" stroke-width="1.6" stroke-linecap="round" stroke-linejoin="round"/>
<path d="M276.011 173.231C275.82 167.959 274.52 162.786 272.195 158.05C271.312 156.253 270.285 154.53 269.124 152.898C260.459 140.7 244.923 134.419 229.552 138.293C214.182 142.166 203.466 155.062 201.601 169.914C201.35 171.901 201.26 173.906 201.332 175.908C201.523 181.18 202.823 186.352 205.148 191.088C214.268 190.795 226.515 189.201 241.406 185.449C256.298 181.696 267.839 177.295 276.011 173.231Z" fill="#1A80FD"/>
<mask id="mask5_23_497" style="mask-type:luminance" maskUnits="userSpaceOnUse" x="201" y="137" width="76" height="55">
<path fill-rule="evenodd" clip-rule="evenodd" d="M276.011 173.231C275.82 167.959 274.52 162.786 272.195 158.05C271.312 156.253 270.285 154.53 269.124 152.898C260.459 140.7 244.923 134.419 229.552 138.293C214.182 142.166 203.466 155.062 201.601 169.914C201.35 171.901 201.26 173.906 201.332 175.908C201.523 181.18 202.823 186.352 205.148 191.088C214.268 190.795 226.515 189.201 241.406 185.449C256.298 181.696 267.839 177.295 276.011 173.231Z" fill="white"/>
</mask>
<g mask="url(#mask5_23_497)">
<path d="M214.621 132.126C294.14 136.84 277.814 180.508 221.113 189.566C164.412 198.623 296.05 183.588 296.05 183.588L293.9 140.246L233.6 128.52L217.504 136.661" fill="#1D62FC"/>
</g>
<path fill-rule="evenodd" clip-rule="evenodd" d="M276.011 173.231C275.82 167.959 274.52 162.786 272.195 158.05C271.312 156.253 270.285 154.53 269.124 152.898C260.459 140.7 244.923 134.419 229.552 138.293C214.182 142.166 203.466 155.062 201.601 169.914C201.35 171.901 201.26 173.906 201.332 175.908C201.523 181.18 202.823 186.352 205.148 191.088C214.268 190.795 226.515 189.201 241.406 185.449C256.298 181.696 267.839 177.295 276.011 173.231Z" stroke="black" stroke-width="1.6" stroke-linecap="round" stroke-linejoin="round"/>
<path d="M208.219 196.241C216.884 208.439 232.42 214.719 247.79 210.846C263.161 206.972 273.877 194.076 275.742 179.225C266.539 183.493 255.043 187.449 242.692 190.562C230.34 193.674 218.343 195.638 208.219 196.241Z" fill="#1A80FD"/>
<path fill-rule="evenodd" clip-rule="evenodd" d="M208.219 196.241C216.884 208.439 232.42 214.719 247.79 210.846C263.161 206.972 273.877 194.076 275.742 179.225C266.539 183.493 255.043 187.449 242.692 190.562C230.34 193.674 218.343 195.638 208.219 196.241Z" stroke="black" stroke-width="1.6" stroke-linecap="round" stroke-linejoin="round"/>
<path d="M295.859 160.158C294.597 155.135 287.545 152.624 274.901 152.697C273.059 152.708 271.124 152.779 269.124 152.898C270.285 154.53 271.312 156.253 272.195 158.05C283.712 157.68 290.235 159.384 290.753 161.445C291.271 163.506 286.331 168.098 276.011 173.231C267.839 177.295 256.298 181.696 241.406 185.449C226.515 189.201 214.268 190.795 205.148 191.088C193.631 191.459 187.108 189.755 186.59 187.694C186.072 185.633 191.012 181.04 201.332 175.908C201.26 173.906 201.35 171.901 201.601 169.914C199.783 170.757 198.045 171.611 196.418 172.475C185.245 178.404 180.221 183.958 181.484 188.98C182.746 194.003 189.798 196.514 202.442 196.441C204.284 196.431 206.219 196.36 208.219 196.24C218.343 195.638 230.34 193.674 242.692 190.562C255.043 187.449 266.539 183.493 275.742 179.225C277.56 178.381 279.298 177.527 280.925 176.663C292.098 170.735 297.122 165.181 295.859 160.158Z" fill="#FDD504"/>
<mask id="mask6_23_497" style="mask-type:luminance" maskUnits="userSpaceOnUse" x="181" y="152" width="116" height="45">
<path fill-rule="evenodd" clip-rule="evenodd" d="M295.859 160.158C294.597 155.135 287.545 152.624 274.901 152.697C273.059 152.708 271.124 152.779 269.124 152.898C270.285 154.53 271.312 156.253 272.195 158.05C283.712 157.68 290.235 159.384 290.753 161.445C291.271 163.506 286.331 168.098 276.011 173.231C267.839 177.295 256.298 181.696 241.406 185.449C226.515 189.201 214.268 190.795 205.148 191.088C193.631 191.459 187.108 189.755 186.59 187.694C186.072 185.633 191.012 181.04 201.332 175.908C201.26 173.906 201.35 171.901 201.601 169.914C199.783 170.757 198.045 171.611 196.418 172.475C185.245 178.404 180.221 183.958 181.484 188.98C182.746 194.003 189.798 196.514 202.442 196.441C204.284 196.431 206.219 196.36 208.219 196.24C218.343 195.638 230.34 193.674 242.692 190.562C255.043 187.449 266.539 183.493 275.742 179.225C277.56 178.381 279.298 177.527 280.925 176.663C292.098 170.735 297.122 165.181 295.859 160.158Z" fill="white"/>
</mask>
<g mask="url(#mask6_23_497)">
<path d="M172.82 174.569C207.895 169.037 204.531 184.811 204.531 184.811L213.18 165.221L199.246 162.331" fill="#FCB006"/>
<path d="M259.546 147.397C277.083 149.794 279.005 162.331 279.005 162.331L264.11 165.221L259.306 160.618" fill="#FCB006"/>
</g>
<path fill-rule="evenodd" clip-rule="evenodd" d="M295.859 160.158C294.597 155.135 287.545 152.624 274.901 152.697C273.059 152.708 271.124 152.779 269.124 152.898C270.285 154.53 271.312 156.253 272.195 158.05C283.712 157.68 290.235 159.384 290.753 161.445C291.271 163.506 286.331 168.098 276.011 173.231C267.839 177.295 256.298 181.696 241.406 185.449C226.515 189.201 214.268 190.795 205.148 191.088C193.631 191.459 187.108 189.755 186.59 187.694C186.072 185.633 191.012 181.04 201.332 175.908C201.26 173.906 201.35 171.901 201.601 169.914C199.783 170.757 198.045 171.611 196.418 172.475C185.245 178.404 180.221 183.958 181.484 188.98C182.746 194.003 189.798 196.514 202.442 196.441C204.284 196.431 206.219 196.36 208.219 196.24C218.343 195.638 230.34 193.674 242.692 190.562C255.043 187.449 266.539 183.493 275.742 179.225C277.56 178.381 279.298 177.527 280.925 176.663C292.098 170.735 297.122 165.181 295.859 160.158Z" stroke="black" stroke-width="1.6" stroke-linecap="round" stroke-linejoin="round"/>
<path d="M226.689 156.84C226.552 157.738 226.027 158.529 225.253 159.004" stroke="black" stroke-width="1.6" stroke-linecap="round" stroke-linejoin="round"/>
<path d="M264.487 197.572C263.244 198.709 261.727 199.505 260.086 199.883" stroke="black" stroke-width="1.6" stroke-linecap="round" stroke-linejoin="round"/>
<path d="M62.4824 80.0885H61.5371V65.1314L62.4824 65.8475V80.0885Z" fill="#FDD504" stroke="black" stroke-width="1.6" stroke-linecap="round" stroke-linejoin="round"/>
<path d="M64.467 92.9713L63.1007 81.0587H60.919L59.5527 92.9713C59.4193 93.5374 59.495 94.1327 59.7659 94.6473C60.3303 95.7905 61.6615 96.3297 62.8624 95.9016C64.0632 95.4735 64.7531 94.2137 64.467 92.9713Z" fill="#FDD504"/>
<mask id="mask7_23_497" style="mask-type:luminance" maskUnits="userSpaceOnUse" x="59" y="81" width="6" height="16">
<path fill-rule="evenodd" clip-rule="evenodd" d="M64.467 92.9714L63.1007 81.0588H60.919L59.5527 92.9714C59.4193 93.5374 59.495 94.1327 59.7659 94.6473C60.3303 95.7905 61.6615 96.3297 62.8624 95.9016C64.0632 95.4735 64.7531 94.2138 64.467 92.9714Z" fill="white"/>
</mask>
<g mask="url(#mask7_23_497)">
<path d="M56.5893 85.1645C60.9924 87.1239 64.417 80.2662 64.417 80.2662H59.5247L55.6108 83.2052V86.1442" fill="#FCB006"/>
</g>
<path fill-rule="evenodd" clip-rule="evenodd" d="M64.467 92.9713L63.1007 81.0587H60.919L59.5527 92.9713C59.4193 93.5374 59.495 94.1327 59.7659 94.6473C60.3303 95.7905 61.6615 96.3297 62.8624 95.9016C64.0632 95.4735 64.7531 94.2137 64.467 92.9713V92.9713Z" stroke="black" stroke-width="1.6" stroke-linecap="round" stroke-linejoin="round"/>
<ellipse cx="62.0098" cy="80.0885" rx="2.25808" ry="2.26087" fill="#E43334"/>
<mask id="mask8_23_497" style="mask-type:luminance" maskUnits="userSpaceOnUse" x="59" y="77" width="6" height="6">
<ellipse cx="62.0098" cy="80.0885" rx="2.25808" ry="2.26087" fill="white"/>
</mask>
<g mask="url(#mask8_23_497)">
<path d="M62.4824 76.8151C65.3685 82.0518 59.0101 82.6679 59.0101 82.6679L66.0351 83.9001L66.1889 78.3553" fill="#C11F27"/>
</g>
<ellipse cx="62.0098" cy="80.0885" rx="2.25808" ry="2.26087" stroke="black" stroke-width="1.6" stroke-linecap="round" stroke-linejoin="round"/>
<path d="M71.484 61.9315V84.5204C73.3191 88.0853 77.7233 91.0209 83.4728 92.6268C86.5187 93.4775 89.9414 93.9556 93.5598 93.9556C97.1781 93.9556 100.601 93.4775 103.647 92.6268C109.396 91.0209 113.8 88.0853 115.635 84.5204V61.9315H71.484Z" fill="#232C3F"/>
<path d="M91.7248 77.6858L57.2964 67.8198C54.2182 66.9377 54.1513 62.5943 57.2009 61.6176L91.528 50.6234C92.8496 50.2001 94.2703 50.2001 95.5918 50.6234L129.919 61.6176C132.969 62.5943 132.902 66.9377 129.823 67.8198L95.395 77.6858C94.1957 78.0295 92.9241 78.0295 91.7248 77.6858Z" fill="#485065"/>
<mask id="mask9_23_497" style="mask-type:luminance" maskUnits="userSpaceOnUse" x="54" y="50" width="79" height="28">
<path fill-rule="evenodd" clip-rule="evenodd" d="M91.7248 77.6858L57.2964 67.8198C54.2182 66.9377 54.1513 62.5943 57.2009 61.6176L91.528 50.6234C92.8496 50.2001 94.2703 50.2001 95.5918 50.6234L129.919 61.6176C132.969 62.5943 132.902 66.9377 129.823 67.8198L95.395 77.6858C94.1957 78.0295 92.9241 78.0295 91.7248 77.6858Z" fill="white"/>
</mask>
<g mask="url(#mask9_23_497)">
<path d="M87.0018 50.306C51.7801 65.4687 77.5208 73.4739 91.7248 77.6858C105.929 81.8977 49.1136 82.3493 49.1136 82.3493L49.9341 60.3401L56.7027 54.1738" fill="#232C3F"/>
</g>
<path fill-rule="evenodd" clip-rule="evenodd" d="M91.7248 77.6858L57.2964 67.8198C54.2182 66.9377 54.1513 62.5943 57.2009 61.6176L91.528 50.6234C92.8496 50.2001 94.2703 50.2001 95.5918 50.6234L129.919 61.6176C132.969 62.5943 132.902 66.9377 129.823 67.8198L95.395 77.6858C94.1957 78.0295 92.9241 78.0295 91.7248 77.6858Z" stroke="black" stroke-width="1.6" stroke-linecap="round" stroke-linejoin="round"/>
<path d="M110.339 82.5139C108.8 83.5246 107.147 84.3516 105.416 84.9782" stroke="black" stroke-width="1.6" stroke-linecap="round" stroke-linejoin="round"/>
<path d="M85.7184 63.0917C88.192 61.9367 90.7787 61.0413 93.437 60.4198" stroke="black" stroke-width="1.6" stroke-linecap="round" stroke-linejoin="round"/>
<path d="M254.455 30.7051C254.457 28.5923 252.745 26.8785 250.632 26.8771H169.807C167.695 26.8785 165.983 28.5923 165.984 30.7051V35.4006H254.455V30.7051Z" fill="white" stroke="black" stroke-width="1.6" stroke-linecap="round" stroke-linejoin="round"/>
<path d="M165.984 35.4006V82.2661C165.983 84.3789 167.695 86.0928 169.807 86.0941H250.632C252.745 86.0928 254.457 84.379 254.455 82.2661V35.4006H165.984Z" fill="white" stroke="black" stroke-width="1.6" stroke-linecap="round" stroke-linejoin="round"/>
<ellipse cx="170.791" cy="31.037" rx="1.05905" ry="1.06036" fill="#E43334" stroke="black" stroke-width="1.6" stroke-linecap="round" stroke-linejoin="round"/>
<ellipse cx="175.241" cy="31.037" rx="1.05905" ry="1.06036" fill="#FDD504" stroke="black" stroke-width="1.6" stroke-linecap="round" stroke-linejoin="round"/>
<ellipse cx="179.691" cy="31.037" rx="1.05905" ry="1.06036" fill="#1AB995" stroke="black" stroke-width="1.6" stroke-linecap="round" stroke-linejoin="round"/>
<rect x="172.945" y="40.1228" width="74.5497" height="40.4351" rx="1.83079" fill="#7A24EA"/>
<mask id="mask10_23_497" style="mask-type:luminance" maskUnits="userSpaceOnUse" x="172" y="40" width="76" height="41">
<rect x="172.945" y="40.1228" width="74.5497" height="40.4351" rx="1.83079" fill="white"/>
</mask>
<g mask="url(#mask10_23_497)">
<path d="M245.681 36.0237C247.495 78.955 162.92 82.2988 162.92 82.2988L258.603 97.5157L264.855 56.4856" fill="#6B1AD3"/>
</g>
<rect x="172.945" y="40.1228" width="74.5497" height="40.4351" rx="1.83079" stroke="black" stroke-width="1.6" stroke-linecap="round" stroke-linejoin="round"/>
<ellipse opacity="0.36" cx="210.22" cy="58.4774" rx="11.8239" ry="11.8532" fill="white" stroke="black" stroke-width="1.6" stroke-linecap="round" stroke-linejoin="round"/>
<path d="M206.925 58.4774V54.1101C206.925 53.845 207.066 53.5997 207.295 53.467C207.525 53.3342 207.808 53.334 208.037 53.4666L211.81 55.6502L215.583 57.8339C215.812 57.967 215.954 58.2122 215.954 58.4774C215.954 58.7427 215.812 58.9878 215.583 59.1209L211.81 61.3046L208.037 63.4883C207.808 63.6208 207.525 63.6207 207.295 63.4879C207.066 63.3551 206.925 63.1099 206.925 62.8448V58.4774Z" fill="white" stroke="black" stroke-width="1.6" stroke-linecap="round" stroke-linejoin="round"/>
<path d="M185.371 50.9944C184.696 51.7831 183.867 52.4262 182.935 52.8846" stroke="black" stroke-width="1.6" stroke-linecap="round" stroke-linejoin="round"/>
<path d="M239.835 73.1803L237.99 73.7964" stroke="black" stroke-width="1.6" stroke-linecap="round" stroke-linejoin="round"/>
</g>
</svg>
