<svg width="393" height="300" viewBox="0 0 393 300" fill="none" xmlns="http://www.w3.org/2000/svg">
<mask id="mask0_23_26" style="mask-type:luminance" maskUnits="userSpaceOnUse" x="-4" y="0" width="401" height="300">
<rect x="-3.5" width="400" height="300" fill="white"/>
</mask>
<g mask="url(#mask0_23_26)">
<path fill-rule="evenodd" clip-rule="evenodd" d="M307.666 194.019H317.798H320.712L318.323 209.476H310.054L307.666 194.019ZM308.192 194.522L310.425 208.973H311.823L310.622 194.522H308.192ZM312.265 208.973L311.064 194.522H317.313L316.112 208.973H312.265ZM316.556 208.973H317.954L320.187 194.522H317.757L316.556 208.973Z" fill="#FCB006"/>
<path d="M307.666 194.019V193.219C307.432 193.219 307.21 193.321 307.058 193.498C306.906 193.675 306.839 193.91 306.875 194.141L307.666 194.019ZM320.712 194.019L321.502 194.141C321.538 193.91 321.471 193.675 321.319 193.498C321.167 193.321 320.945 193.219 320.712 193.219V194.019ZM318.323 209.476V210.276C318.718 210.276 319.054 209.988 319.114 209.598L318.323 209.476ZM310.054 209.476L309.263 209.598C309.323 209.988 309.659 210.276 310.054 210.276V209.476ZM310.425 208.973L309.634 209.095C309.695 209.485 310.03 209.773 310.425 209.773V208.973ZM308.192 194.522V193.722C307.958 193.722 307.737 193.824 307.585 194.001C307.433 194.178 307.366 194.413 307.401 194.644L308.192 194.522ZM311.823 208.973V209.773C312.047 209.773 312.26 209.679 312.411 209.515C312.563 209.35 312.639 209.13 312.62 208.907L311.823 208.973ZM310.622 194.522L311.419 194.455C311.385 194.041 311.038 193.722 310.622 193.722V194.522ZM311.064 194.522V193.722C310.84 193.722 310.627 193.815 310.475 193.98C310.324 194.144 310.248 194.365 310.267 194.588L311.064 194.522ZM312.265 208.973L311.468 209.039C311.502 209.454 311.849 209.773 312.265 209.773V208.973ZM317.313 194.522L318.111 194.588C318.129 194.365 318.053 194.144 317.902 193.98C317.751 193.815 317.537 193.722 317.313 193.722V194.522ZM316.112 208.973V209.773C316.528 209.773 316.875 209.454 316.91 209.039L316.112 208.973ZM317.954 208.973V209.773C318.349 209.773 318.684 209.485 318.745 209.095L317.954 208.973ZM316.556 208.973L315.759 208.907C315.74 209.13 315.816 209.35 315.968 209.515C316.119 209.679 316.333 209.773 316.556 209.773V208.973ZM320.187 194.522L320.978 194.644C321.013 194.413 320.946 194.178 320.795 194.001C320.643 193.824 320.421 193.722 320.187 193.722V194.522ZM317.757 194.522V193.722C317.341 193.722 316.994 194.041 316.96 194.455L317.757 194.522ZM317.798 193.219H307.666V194.819H317.798V193.219ZM320.712 193.219H317.798V194.819H320.712V193.219ZM319.114 209.598L321.502 194.141L319.921 193.897L317.533 209.354L319.114 209.598ZM310.054 210.276H318.323V208.676H310.054V210.276ZM306.875 194.141L309.263 209.598L310.844 209.354L308.456 193.897L306.875 194.141ZM311.216 208.851L308.983 194.399L307.401 194.644L309.634 209.095L311.216 208.851ZM311.823 208.173H310.425V209.773H311.823V208.173ZM309.825 194.588L311.026 209.039L312.62 208.907L311.419 194.455L309.825 194.588ZM308.192 195.322H310.622V193.722H308.192V195.322ZM310.267 194.588L311.468 209.039L313.062 208.907L311.861 194.455L310.267 194.588ZM317.313 193.722H311.064V195.322H317.313V193.722ZM316.91 209.039L318.111 194.588L316.516 194.455L315.315 208.907L316.91 209.039ZM312.265 209.773H316.112V208.173H312.265V209.773ZM317.954 208.173H316.556V209.773H317.954V208.173ZM319.397 194.399L317.163 208.851L318.745 209.095L320.978 194.644L319.397 194.399ZM317.757 195.322H320.187V193.722H317.757V195.322ZM317.354 209.039L318.555 194.588L316.96 194.455L315.759 208.907L317.354 209.039Z" fill="black"/>
<path d="M314.189 108.639C234.23 108.639 307.65 193.588 307.65 193.588H320.729C320.729 193.588 394.149 108.639 314.189 108.639Z" fill="#1AB995"/>
<mask id="mask1_23_26" style="mask-type:luminance" maskUnits="userSpaceOnUse" x="276" y="108" width="76" height="86">
<path fill-rule="evenodd" clip-rule="evenodd" d="M314.189 108.639C234.23 108.639 307.65 193.588 307.65 193.588H320.729C320.729 193.588 394.149 108.639 314.189 108.639Z" fill="white"/>
</mask>
<g mask="url(#mask1_23_26)">
<path d="M351.054 123.44C354.393 125.699 356.054 129.739 355.268 133.693C359.071 131.209 360.725 126.475 359.295 122.163C357.865 117.852 353.71 115.044 349.176 115.325C344.642 115.606 340.866 118.905 339.979 123.361C343.349 121.152 347.716 121.184 351.054 123.44Z" fill="#FDD504" stroke="black" stroke-width="1.6" stroke-linecap="round" stroke-linejoin="round"/>
<path d="M279.99 156.548C283.33 158.807 284.99 162.847 284.204 166.801C288.007 164.317 289.661 159.583 288.231 155.271C286.801 150.96 282.646 148.152 278.112 148.433C273.578 148.714 269.802 152.013 268.916 156.469C272.286 154.26 276.652 154.292 279.99 156.548Z" fill="#FDD504" stroke="black" stroke-width="1.6" stroke-linecap="round" stroke-linejoin="round"/>
</g>
<path fill-rule="evenodd" clip-rule="evenodd" d="M314.189 108.639C234.23 108.639 307.65 193.588 307.65 193.588H320.729C320.729 193.588 394.149 108.639 314.189 108.639Z" stroke="black" stroke-width="1.6" stroke-linecap="round" stroke-linejoin="round"/>
<path d="M314.189 108.639C261.066 108.639 309.845 193.588 309.845 193.588H318.534C318.534 193.588 367.313 108.639 314.189 108.639Z" fill="white"/>
<mask id="mask2_23_26" style="mask-type:luminance" maskUnits="userSpaceOnUse" x="289" y="108" width="50" height="86">
<path fill-rule="evenodd" clip-rule="evenodd" d="M314.189 108.639C261.066 108.639 309.845 193.588 309.845 193.588H318.534C318.534 193.588 367.313 108.639 314.189 108.639Z" fill="white"/>
</mask>
<g mask="url(#mask2_23_26)">
<path d="M294.168 115.285L297.354 121.747L304.477 122.783L299.323 127.812L300.539 134.914L294.168 131.561L287.797 134.914L289.014 127.812L283.86 122.783L290.983 121.747L294.168 115.285Z" fill="#FDD504" stroke="black" stroke-width="1.6" stroke-linecap="round" stroke-linejoin="round"/>
<path d="M331.642 159.439C331.641 155.408 334.057 151.769 337.772 150.206C333.584 148.45 328.738 149.733 325.967 153.333C323.197 156.932 323.197 161.945 325.967 165.545C328.738 169.144 333.584 170.428 337.772 168.672C334.057 167.109 331.641 163.47 331.642 159.439Z" fill="#FDD504" stroke="black" stroke-width="1.6" stroke-linecap="round" stroke-linejoin="round"/>
</g>
<path fill-rule="evenodd" clip-rule="evenodd" d="M314.189 108.639C261.066 108.639 309.845 193.588 309.845 193.588H318.534C318.534 193.588 367.313 108.639 314.189 108.639Z" stroke="black" stroke-width="1.6" stroke-linecap="round" stroke-linejoin="round"/>
<path d="M314.189 108.639C293.377 108.639 312.487 193.588 312.487 193.588H315.891C315.891 193.588 335 108.639 314.189 108.639Z" fill="#1AB995" stroke="black" stroke-width="1.6" stroke-linecap="round" stroke-linejoin="round"/>
<path d="M316.484 223.326H311.894C309.563 223.326 307.673 221.436 307.673 219.104V208.542H320.705V219.104C320.705 220.224 320.26 221.298 319.469 222.089C318.677 222.881 317.603 223.326 316.484 223.326Z" fill="#FCB006"/>
<mask id="mask3_23_26" style="mask-type:luminance" maskUnits="userSpaceOnUse" x="307" y="208" width="14" height="16">
<path fill-rule="evenodd" clip-rule="evenodd" d="M316.484 223.326H311.894C309.563 223.326 307.673 221.436 307.673 219.104V208.542H320.705V219.104C320.705 220.224 320.26 221.298 319.469 222.089C318.677 222.881 317.603 223.326 316.484 223.326Z" fill="white"/>
</mask>
<g mask="url(#mask3_23_26)">
<path d="M305.634 210.703C321.064 210.116 320.921 218.134 320.186 223.918C319.452 229.702 323.111 204.542 323.111 204.542L311.064 206.566" fill="#FDD504"/>
</g>
<path fill-rule="evenodd" clip-rule="evenodd" d="M316.484 223.326H311.894C309.563 223.326 307.673 221.436 307.673 219.104V208.542H320.705V219.104C320.705 220.224 320.26 221.298 319.469 222.089C318.677 222.881 317.603 223.326 316.484 223.326Z" stroke="black" stroke-width="1.6" stroke-linecap="round" stroke-linejoin="round"/>
<rect x="306.351" y="207.746" width="15.6761" height="2.95671" rx="0.78127" fill="white" stroke="black" stroke-width="1.6" stroke-linecap="round" stroke-linejoin="round"/>
<path d="M322.561 192.166H305.816L307.517 195.237H320.861L322.561 192.166Z" fill="white" stroke="black" stroke-width="1.6" stroke-linecap="round" stroke-linejoin="round"/>
<path d="M334.009 127.724C334.758 129.478 334.183 131.705 332.678 132.876" stroke="black" stroke-width="1.6" stroke-linecap="round" stroke-linejoin="round"/>
<path d="M312.277 215.384C313.009 216.003 313.942 216.334 314.9 216.314" stroke="black" stroke-width="1.6" stroke-linecap="round" stroke-linejoin="round"/>
<path d="M88.9546 179.56L87.2529 169.595L116.149 146.916L88.9546 179.56Z" fill="#FDD504" stroke="black" stroke-width="1.6" stroke-linecap="round" stroke-linejoin="round"/>
<path d="M94.8193 169.741L91.0819 170.769L88.954 179.56L103.615 163.238L94.8193 169.741Z" fill="#FDD504" stroke="black" stroke-width="1.6" stroke-linecap="round" stroke-linejoin="round"/>
<path d="M111.763 175.859L91.0828 170.769L116.15 146.916L111.763 175.859Z" fill="#FCB006" stroke="black" stroke-width="1.6" stroke-linecap="round" stroke-linejoin="round"/>
<path d="M62.6364 218.773L62.9454 219.188C64.6067 217.936 66.1917 216.586 67.6918 215.145L67.3342 214.77C65.8498 216.198 64.281 217.534 62.6364 218.773Z" fill="#190000"/>
<path d="M62.5854 200.34L62.6804 200.849C64.7047 200.474 66.751 200.23 68.8065 200.118L68.7783 199.602C66.7003 199.715 64.6317 199.961 62.5854 200.34Z" fill="#190000"/>
<path d="M51.6539 224.024L51.7388 224.535C53.5963 224.228 55.5872 223.545 57.6568 222.505L57.4245 222.042C55.4013 223.059 53.46 223.726 51.6539 224.024Z" fill="#190000"/>
<path d="M82.3165 195.147C81.3095 196.862 80.2681 198.542 79.2176 200.145C77.8257 199.922 76.4177 199.758 75.0106 199.656L74.9742 200.173C77.0273 200.321 79.0688 200.601 81.0862 201.01L81.1892 200.502C80.7206 200.407 80.2492 200.319 79.7752 200.237C80.7882 198.686 81.7913 197.064 82.7629 195.41L82.3165 195.147Z" fill="#190000"/>
<path d="M71.5968 210.291L71.9867 210.632C73.2998 209.124 74.6159 207.494 75.8977 205.787L75.4836 205.475C74.2099 207.173 72.9019 208.793 71.5968 210.291Z" fill="#190000"/>
<path d="M41.9739 218.935L41.483 219.1C42.2224 221.299 43.6163 222.946 45.5132 223.863L45.7375 223.396C43.9688 222.542 42.6679 220.999 41.9739 218.935Z" fill="#190000"/>
<path d="M41.8308 212.867L42.3035 213.076C43.0338 211.417 44.2722 209.801 45.9832 208.274L45.6398 207.887C43.8722 209.464 42.5904 211.14 41.8308 212.867Z" fill="#190000"/>
<path d="M56.5448 201.897C54.5654 202.553 52.6443 203.374 50.8015 204.35L51.046 204.807C52.8628 203.844 54.7569 203.035 56.7084 202.387L56.5448 201.897Z" fill="#190000"/>
<path d="M142.452 224.13L142.555 224.637C144.592 224.22 146.605 223.695 148.587 223.066L148.431 222.573C146.467 223.196 144.471 223.715 142.452 224.13Z" fill="#190000"/>
<path d="M118.026 222.732C119.95 223.533 121.937 224.172 123.967 224.642L124.085 224.138C122.082 223.675 120.123 223.044 118.226 222.253L118.026 222.732Z" fill="#190000"/>
<path d="M130.179 225.033L130.144 225.55C131.064 225.611 132.007 225.642 132.946 225.642C134.069 225.642 135.225 225.597 136.381 225.509L136.341 224.993C134.29 225.152 132.231 225.166 130.179 225.033Z" fill="#190000"/>
<path d="M88.1159 184.193C87.2109 186.085 86.2745 187.949 85.3331 189.733L85.7897 189.974C86.7351 188.185 87.6745 186.315 88.5825 184.416L88.1159 184.193Z" fill="#190000"/>
<path d="M170.431 211.391C168.784 212.563 167.041 213.708 165.253 214.795L165.521 215.238C167.32 214.144 169.074 212.992 170.73 211.813L170.431 211.391Z" fill="#190000"/>
<path d="M154.237 220.439L154.437 220.917C156.309 220.133 158.209 219.248 160.084 218.284L159.848 217.824C157.985 218.781 156.098 219.661 154.237 220.439Z" fill="#190000"/>
<path d="M107.465 216.154C109.045 217.511 110.723 218.749 112.487 219.858L112.761 219.419C111.02 218.324 109.361 217.101 107.801 215.76L107.465 216.154Z" fill="#190000"/>
<path d="M87.0397 202.629C88.9853 203.298 90.8844 204.096 92.7244 205.018L92.9567 204.555C91.0958 203.623 89.1751 202.816 87.2073 202.139L87.0397 202.629Z" fill="#190000"/>
<path d="M98.0439 208.139C99.7466 209.296 101.373 210.561 102.915 211.926L103.258 211.538C101.7 210.159 100.055 208.88 98.3349 207.71L98.0439 208.139Z" fill="#190000"/>
<path d="M87.2529 169.595L76.2769 166.565L116.149 146.916L87.2529 169.595Z" fill="#FCB006" stroke="black" stroke-width="1.6" stroke-linecap="round" stroke-linejoin="round"/>
<path d="M109.421 164.273C108.69 165.017 107.803 165.59 106.825 165.952" stroke="black" stroke-width="1.6" stroke-linecap="round" stroke-linejoin="round"/>
<path d="M112.426 57.3835L126.385 39.0715L156.686 62.2201C158.045 63.2591 158.306 65.2024 157.269 66.5629L152.788 72.4413L147.065 79.9486C146.568 80.6018 145.831 81.0303 145.017 81.1398C144.203 81.2492 143.379 81.0306 142.727 80.5321L112.426 57.3835Z" fill="#FDD504"/>
<mask id="mask4_23_26" style="mask-type:luminance" maskUnits="userSpaceOnUse" x="112" y="39" width="46" height="43">
<path fill-rule="evenodd" clip-rule="evenodd" d="M112.426 57.3835L126.385 39.0715L156.686 62.2201C158.045 63.2591 158.306 65.2024 157.269 66.5629L152.788 72.4413L147.065 79.9486C146.568 80.6018 145.831 81.0303 145.017 81.1398C144.203 81.2492 143.379 81.0306 142.727 80.5321L112.426 57.3835Z" fill="white"/>
</mask>
<g mask="url(#mask4_23_26)">
<path d="M119.556 43.4665L121.72 40.628L150.871 62.8982L148.707 65.7367L119.556 43.4665Z" fill="white" stroke="black" stroke-width="1.6" stroke-linecap="round" stroke-linejoin="round"/>
<path d="M115.664 48.5718L117.828 45.7333L146.979 68.0035L144.816 70.842L115.664 48.5718Z" fill="white" stroke="black" stroke-width="1.6" stroke-linecap="round" stroke-linejoin="round"/>
<path d="M111.931 53.4697L114.095 50.6312L143.246 72.9014L141.082 75.7399L111.931 53.4697Z" fill="white" stroke="black" stroke-width="1.6" stroke-linecap="round" stroke-linejoin="round"/>
<path d="M135.813 80.0412L154.48 55.5523L164.09 62.8939L145.423 87.3828L135.813 80.0412Z" fill="#E43334"/>
<mask id="mask5_23_26" style="mask-type:luminance" maskUnits="userSpaceOnUse" x="135" y="55" width="30" height="33">
<path fill-rule="evenodd" clip-rule="evenodd" d="M135.813 80.0412L154.48 55.5523L164.09 62.8939L145.423 87.3828L135.813 80.0412Z" fill="white"/>
</mask>
<g mask="url(#mask5_23_26)">
<path d="M147.578 82.5372C138.789 76.1373 143.936 69.8342 153.034 58.5179C162.133 47.2015 142.398 60.9159 142.398 60.9159L132.43 79.5634L139.807 83.0926L142.472 83.5178" fill="#C11F27"/>
</g>
<path fill-rule="evenodd" clip-rule="evenodd" d="M135.813 80.0412L154.48 55.5523L164.09 62.8939L145.423 87.3828L135.813 80.0412V80.0412Z" stroke="black" stroke-width="1.6" stroke-linecap="round" stroke-linejoin="round"/>
<path d="M137.63 77.6578L154.63 55.3555L152.468 53.7036L135.468 76.0059L137.63 77.6578Z" fill="#1A80FD" stroke="black" stroke-width="1.6" stroke-linecap="round" stroke-linejoin="round"/>
</g>
<path fill-rule="evenodd" clip-rule="evenodd" d="M112.426 57.3835L126.385 39.0715L156.686 62.2201C158.045 63.2591 158.305 65.2024 157.269 66.5629L152.788 72.4413L147.065 79.9486C146.568 80.6018 145.831 81.0303 145.017 81.1398C144.203 81.2492 143.379 81.0306 142.727 80.5321L112.426 57.3835Z" stroke="black" stroke-width="1.6" stroke-linecap="round" stroke-linejoin="round"/>
<path d="M106.651 38.4829C107.152 37.8251 107.893 37.4432 108.556 37.5015L126.385 39.0713L112.427 57.3832L106.208 40.5811C105.977 39.9572 106.149 39.1408 106.651 38.4829Z" fill="#FACCC4"/>
<mask id="mask6_23_26" style="mask-type:luminance" maskUnits="userSpaceOnUse" x="106" y="37" width="21" height="21">
<path fill-rule="evenodd" clip-rule="evenodd" d="M106.651 38.4829C107.152 37.8251 107.893 37.4432 108.556 37.5015L126.385 39.0713L112.427 57.3832L106.208 40.5811C105.977 39.9572 106.149 39.1408 106.651 38.4829Z" fill="white"/>
</mask>
<g mask="url(#mask6_23_26)">
<path d="M108.636 56.0942C123.547 37.5654 120.371 38.542 116.274 38.1812C112.178 37.8205 133.49 35.8707 133.49 35.8707C133.49 35.8707 133.218 38.4974 132.99 38.7959C132.763 39.0945 112.252 60.431 112.252 60.431L106.321 54.7979" fill="#ED707B"/>
<path d="M107.75 59.7099L127.35 33.9965L131.02 36.7997L111.419 62.513L107.75 59.7099Z" fill="#FCB006" stroke="black" stroke-width="1.6" stroke-linecap="round" stroke-linejoin="round"/>
<ellipse cx="105.068" cy="35.4808" rx="10.0875" ry="8.24555" transform="rotate(-52.8054 105.068 35.4808)" fill="#485065" stroke="black" stroke-width="1.6" stroke-linecap="round" stroke-linejoin="round"/>
</g>
<path fill-rule="evenodd" clip-rule="evenodd" d="M106.651 38.4829V38.4829C107.152 37.8251 107.893 37.4432 108.556 37.5015L126.385 39.0713L112.427 57.3832L106.208 40.5811C105.977 39.9572 106.149 39.1408 106.651 38.4829Z" stroke="black" stroke-width="1.6" stroke-linecap="round" stroke-linejoin="round"/>
<path d="M110.584 45.8647C110.761 46.5025 110.781 47.1739 110.64 47.8209" stroke="black" stroke-width="1.6" stroke-linecap="round" stroke-linejoin="round"/>
<path d="M223.563 58.6463L253.684 33.1623L258.961 39.3616L236.045 65.9962L223.563 58.6463Z" fill="#FCB006" stroke="black" stroke-width="1.6" stroke-linecap="round" stroke-linejoin="round"/>
<path d="M235.218 73.2411L235.75 76.9358L253.473 82.8319L250.703 46.3714L235.218 73.2411Z" fill="#D6DCF2"/>
<path d="M227.913 66.0828L254.772 34.0488L256.193 37.4526L254.861 52.0628L254.363 43.0227L235.75 76.9359C235.75 76.9359 228.949 71.5674 227.913 66.0828Z" fill="white"/>
<mask id="mask7_23_26" style="mask-type:luminance" maskUnits="userSpaceOnUse" x="227" y="34" width="30" height="43">
<path fill-rule="evenodd" clip-rule="evenodd" d="M227.913 66.0828L254.772 34.0488L256.193 37.4526L254.861 52.0628L254.363 43.0227L235.75 76.9359C235.75 76.9359 228.949 71.5674 227.913 66.0828Z" fill="white"/>
</mask>
<g mask="url(#mask7_23_26)">
<path d="M226.576 72.1314L246.144 48.2401L225.938 74.0021L230.327 74.7227L241.376 59.6486L231.215 75.8097L221.795 75.6909" fill="#D6DCF2"/>
</g>
<path fill-rule="evenodd" clip-rule="evenodd" d="M227.913 66.0828L254.772 34.0488L256.193 37.4526L254.861 52.0628L254.363 43.0227L235.75 76.9359C235.75 76.9359 228.949 71.5674 227.913 66.0828Z" stroke="black" stroke-width="1.6" stroke-linecap="round" stroke-linejoin="round"/>
<path d="M295.934 59.0666L297.921 58.0449C297.921 58.0449 298.864 56.5684 297.086 55.4773L253.684 33.1623L254.791 34.2469L255.939 36.6741L256.047 39.0577L258.151 43.8047L295.934 59.0666Z" fill="#E43334" stroke="black" stroke-width="1.6" stroke-linecap="round" stroke-linejoin="round"/>
<path d="M256.158 41.7701L255.65 37.7736C255.65 37.7736 255.993 33.9964 252.952 33.7821L253.684 33.1623C253.684 33.1623 256.982 34.2783 256.335 38.1022L256.158 41.7701Z" fill="#485065" stroke="black" stroke-width="1.6" stroke-linecap="round" stroke-linejoin="round"/>
<path d="M237.06 81.6092L255.65 37.7737L297.921 58.045L283.103 96.139L237.06 81.6092Z" fill="#FDD504"/>
<mask id="mask8_23_26" style="mask-type:luminance" maskUnits="userSpaceOnUse" x="237" y="37" width="61" height="60">
<path fill-rule="evenodd" clip-rule="evenodd" d="M237.06 81.6092L255.65 37.7737L297.921 58.045L283.103 96.139L237.06 81.6092Z" fill="white"/>
</mask>
<g mask="url(#mask8_23_26)">
<path d="M257.749 49.4889L248.941 75.7355C248.846 76.0166 248.868 76.3237 249.001 76.5887C249.134 76.8537 249.367 77.0547 249.649 77.1469L255.586 79.0862C256.169 79.2763 256.796 78.9583 256.986 78.3757L265.417 52.6594C265.595 52.1171 265.334 51.5281 264.812 51.2961L259.253 48.8265C258.967 48.6997 258.641 48.6992 258.355 48.8253C258.068 48.9514 257.849 49.1923 257.749 49.4889Z" fill="#FCB006"/>
<path d="M252.126 86.3635C245.482 82.9174 280.976 99.2197 289.014 79.9448C291.765 73.3488 290.731 106.446 290.731 106.446L257.037 95.1836" fill="#FCB006"/>
</g>
<path fill-rule="evenodd" clip-rule="evenodd" d="M237.06 81.6092L255.65 37.7737L297.921 58.045L283.103 96.139L237.06 81.6092V81.6092Z" stroke="black" stroke-width="1.6" stroke-linecap="round" stroke-linejoin="round"/>
<path d="M278.452 75.9187C277.971 76.846 277.354 77.6958 276.62 78.4396" stroke="black" stroke-width="1.6" stroke-linecap="round" stroke-linejoin="round"/>
<path d="M243.678 56.2345L241.634 58.0859" stroke="black" stroke-width="1.6" stroke-linecap="round" stroke-linejoin="round"/>
<path d="M153.416 103.39L152.709 103.011L158.692 91.8268L159.112 92.7412L153.416 103.39Z" fill="#FDD504" stroke="black" stroke-width="1.6" stroke-linecap="round" stroke-linejoin="round"/>
<path d="M149.747 113.818L153.49 104.363L151.859 103.488L146.072 111.848C145.746 112.218 145.564 112.693 145.561 113.187C145.54 113.905 145.877 114.587 146.46 115.006C147.029 115.406 147.758 115.503 148.412 115.267C149.067 115.03 149.565 114.49 149.747 113.818H149.747Z" fill="#FDD504"/>
<mask id="mask9_23_26" style="mask-type:luminance" maskUnits="userSpaceOnUse" x="145" y="103" width="9" height="13">
<path fill-rule="evenodd" clip-rule="evenodd" d="M149.747 113.818L153.49 104.363L151.859 103.488L146.072 111.848C145.746 112.218 145.564 112.693 145.561 113.187C145.54 113.905 145.877 114.587 146.46 115.006C147.029 115.406 147.758 115.503 148.412 115.267C149.067 115.03 149.565 114.49 149.747 113.818H149.747Z" fill="white"/>
</mask>
<g mask="url(#mask9_23_26)">
<path d="M146.979 104.823C149.488 108.053 154.792 104.298 154.792 104.298L151.133 102.337L147.031 102.965L145.855 105.163" fill="#FCB006"/>
</g>
<path fill-rule="evenodd" clip-rule="evenodd" d="M149.747 113.818L153.49 104.363L151.859 103.488L146.072 111.848C145.746 112.218 145.564 112.693 145.561 113.187C145.54 113.905 145.877 114.587 146.46 115.006C147.029 115.406 147.758 115.503 148.412 115.267C149.067 115.03 149.565 114.49 149.747 113.818H149.747Z" stroke="black" stroke-width="1.6" stroke-linecap="round" stroke-linejoin="round"/>
<ellipse cx="153.063" cy="103.2" rx="1.9156" ry="1.91771" fill="#E43334"/>
<mask id="mask10_23_26" style="mask-type:luminance" maskUnits="userSpaceOnUse" x="151" y="101" width="4" height="5">
<ellipse cx="153.063" cy="103.2" rx="1.9156" ry="1.91771" fill="white"/>
</mask>
<g mask="url(#mask10_23_26)">
<path d="M154.726 100.942C154.79 106.015 149.788 103.926 149.788 103.926L154.549 107.664L156.882 103.58" fill="#C11F27"/>
</g>
<ellipse cx="153.063" cy="103.2" rx="1.9156" ry="1.91771" stroke="black" stroke-width="1.6" stroke-linecap="round" stroke-linejoin="round"/>
<path d="M167.411 93.4221L161.351 104.75L158.376 110.313C158.322 113.714 160.441 117.675 164.099 121.181C168.331 125.155 173.534 127.944 179.186 129.27C184.128 130.374 188.596 129.945 191.394 128.015L194.37 122.452L200.43 111.124L167.411 93.4221Z" fill="#232C3F"/>
<path d="M176.247 113.317L154.446 92.1366C152.497 90.2429 154.184 86.9683 156.856 87.4606L186.925 93.0028C188.083 93.2164 189.145 93.7859 189.964 94.6322L211.238 116.616C213.127 118.569 211.34 121.79 208.685 121.215L178.992 114.789C177.957 114.565 177.006 114.055 176.247 113.317Z" fill="#485065"/>
<mask id="mask11_23_26" style="mask-type:luminance" maskUnits="userSpaceOnUse" x="153" y="87" width="60" height="35">
<path fill-rule="evenodd" clip-rule="evenodd" d="M176.247 113.317L154.446 92.1366C152.497 90.2429 154.184 86.9683 156.856 87.4606L186.925 93.0028C188.083 93.2164 189.145 93.7859 189.964 94.6322L211.238 116.616C213.127 118.569 211.34 121.79 208.685 121.215L178.992 114.789C177.957 114.565 177.006 114.055 176.247 113.317Z" fill="white"/>
</mask>
<g mask="url(#mask11_23_26)">
<path d="M183.666 90.9509C151.26 88.167 167.308 104.473 176.246 113.318C185.184 122.162 142.514 99.7204 142.514 99.7204L151.931 83.592L159.46 81.695" fill="#232C3F"/>
</g>
<path fill-rule="evenodd" clip-rule="evenodd" d="M176.247 113.317L154.446 92.1366C152.497 90.2429 154.184 86.9683 156.856 87.4606L186.925 93.0028C188.083 93.2164 189.145 93.7859 189.964 94.6322L211.238 116.616C213.127 118.569 211.34 121.79 208.685 121.215L178.992 114.789C177.957 114.565 177.006 114.055 176.247 113.317Z" stroke="black" stroke-width="1.6" stroke-linecap="round" stroke-linejoin="round"/>
<path d="M188.235 124.39C186.679 124.529 185.113 124.485 183.568 124.259" stroke="black" stroke-width="1.6" stroke-linecap="round" stroke-linejoin="round"/>
<path d="M177.592 99.9967C179.904 100.125 182.196 100.492 184.433 101.094" stroke="black" stroke-width="1.6" stroke-linecap="round" stroke-linejoin="round"/>
<ellipse cx="277.956" cy="110.456" rx="5.83812" ry="6.20255" fill="#FDD504" stroke="black" stroke-width="1.6" stroke-linecap="round" stroke-linejoin="round"/>
<path d="M239.287 71.5753C236.902 70.8685 238.64 80.8638 238.64 80.8638C238.64 80.8638 234.799 83.7322 234.524 85.297C234.249 86.8618 237.05 95.8044 237.05 95.8044L242.691 93.9381L239.287 71.5753Z" fill="#F9C1BB"/>
<mask id="mask12_23_26" style="mask-type:luminance" maskUnits="userSpaceOnUse" x="234" y="71" width="9" height="25">
<path fill-rule="evenodd" clip-rule="evenodd" d="M239.287 71.5753C236.902 70.8685 238.64 80.8638 238.64 80.8638C238.64 80.8638 234.799 83.7322 234.524 85.297C234.249 86.8618 237.05 95.8044 237.05 95.8044L242.691 93.9381L239.287 71.5753Z" fill="white"/>
</mask>
<g mask="url(#mask12_23_26)">
<path d="M231.875 93.1C234.849 87.8065 237.853 89.567 242.016 89.5036C246.179 89.4403 244.034 92.6749 244.034 92.6749L238.598 97.7144L235.292 98.1917" fill="#ED707B"/>
</g>
<path fill-rule="evenodd" clip-rule="evenodd" d="M239.287 71.5753C236.902 70.8685 238.64 80.8638 238.64 80.8638C238.64 80.8638 234.799 83.7322 234.524 85.297C234.249 86.8618 237.05 95.8044 237.05 95.8044L242.691 93.9381L239.287 71.5753Z" stroke="black" stroke-width="1.6" stroke-linecap="round" stroke-linejoin="round"/>
<ellipse cx="267.104" cy="122.733" rx="12.3861" ry="12.2776" fill="#FDD504" stroke="black" stroke-width="1.6" stroke-linecap="round" stroke-linejoin="round"/>
<path d="M149.101 186.249L130.091 202.414L133.851 213.602L159.611 194.973L149.101 186.249Z" fill="#F9C1BB"/>
<mask id="mask13_23_26" style="mask-type:luminance" maskUnits="userSpaceOnUse" x="130" y="186" width="30" height="28">
<path fill-rule="evenodd" clip-rule="evenodd" d="M149.101 186.249L130.091 202.414L133.851 213.602L159.611 194.973L149.101 186.249Z" fill="white"/>
</mask>
<g mask="url(#mask13_23_26)">
<path d="M140.6 189.652C138.477 199.149 143.952 203.66 149.427 205.203C154.903 206.747 149.204 212.326 149.204 212.326L155.908 199.386L139.259 189.058" fill="#ED707B"/>
</g>
<path fill-rule="evenodd" clip-rule="evenodd" d="M149.101 186.249L130.091 202.414L133.851 213.602L159.611 194.973L149.101 186.249V186.249Z" stroke="black" stroke-width="1.6" stroke-linecap="round" stroke-linejoin="round"/>
<path d="M109.984 192.11C109.984 192.11 114.627 188.426 119.132 193.302C126.384 201.152 136.153 197.259 136.153 197.259C136.153 197.259 135.831 206.983 142.181 208.276L138.575 213.898C136.617 216.337 133.469 216.701 131.566 214.709L109.984 192.11Z" fill="#485065" stroke="black" stroke-width="1.6" stroke-linecap="round" stroke-linejoin="round"/>
<path d="M139.911 192.811C137.471 199.925 160.546 203.385 160.546 203.385L189.733 170.968L231.501 198.51L254.349 184.639L197.292 152.617C191.627 149.033 184.177 149.67 179.243 154.161L139.911 192.811Z" fill="#FDD504"/>
<path fill-rule="evenodd" clip-rule="evenodd" d="M139.911 192.811C137.471 199.925 160.546 203.385 160.546 203.385L189.733 170.968L231.501 198.51L254.349 184.639L197.292 152.617C191.627 149.033 184.177 149.67 179.243 154.161L139.911 192.811Z" stroke="black" stroke-width="1.6" stroke-linecap="round" stroke-linejoin="round"/>
<path d="M143.752 132.175L122.144 119.46L112.309 126.327L138.375 144.551L143.752 132.175Z" fill="#F9C1BB"/>
<mask id="mask14_23_26" style="mask-type:luminance" maskUnits="userSpaceOnUse" x="112" y="119" width="32" height="26">
<path fill-rule="evenodd" clip-rule="evenodd" d="M143.752 132.175L122.144 119.46L112.309 126.327L138.375 144.551L143.752 132.175Z" fill="white"/>
</mask>
<g mask="url(#mask14_23_26)">
<path d="M108.643 145.491C108.924 145.043 109.221 144.605 109.533 144.179C118.14 132.398 137.823 128.707 137.823 128.707L131.736 144.551L112.309 145.491" fill="#ED707B"/>
</g>
<path fill-rule="evenodd" clip-rule="evenodd" d="M143.752 132.175L122.144 119.46L112.309 126.327L138.375 144.551L143.752 132.175V132.175Z" stroke="black" stroke-width="1.6" stroke-linecap="round" stroke-linejoin="round"/>
<path d="M126.167 97.7173C126.167 97.7173 131.185 100.903 127.766 106.552C122.261 115.644 127.701 121.748 127.701 121.748C127.701 121.748 119.401 126.158 120.054 132.431L113.448 130.792C110.464 129.717 109.154 126.911 110.533 124.546L126.167 97.7173Z" fill="#485065" stroke="black" stroke-width="1.6" stroke-linecap="round" stroke-linejoin="round"/>
<path d="M137.822 128.707C120.817 131.556 129.855 149.541 129.855 149.541L181.678 176.429L232.19 208.191C241.566 214.087 254.046 211.857 260.651 203.105L271.796 188.338L190.247 155.298L137.822 128.707Z" fill="#FDD504"/>
<mask id="mask15_23_26" style="mask-type:luminance" maskUnits="userSpaceOnUse" x="127" y="128" width="145" height="84">
<path fill-rule="evenodd" clip-rule="evenodd" d="M137.822 128.707C120.817 131.556 129.855 149.541 129.855 149.541L181.678 176.429L232.19 208.191C241.566 214.087 254.046 211.857 260.651 203.105L271.796 188.338L190.247 155.298L137.822 128.707Z" fill="white"/>
</mask>
<g mask="url(#mask15_23_26)">
<path d="M244.776 172.795C256.584 193.925 254.281 222.081 221.589 201.525C188.897 180.968 212.336 217.431 214.571 219.567C216.805 221.704 256.067 230.489 256.067 230.489L269.416 220.517L281.39 203.385L267.264 172.082L242.293 172.967" fill="#FCB006"/>
</g>
<path fill-rule="evenodd" clip-rule="evenodd" d="M137.822 128.707C120.817 131.556 129.855 149.541 129.855 149.541L181.678 176.429L232.19 208.191C241.566 214.087 254.046 211.857 260.651 203.105L271.796 188.338L190.247 155.298L137.822 128.707Z" stroke="black" stroke-width="1.6" stroke-linecap="round" stroke-linejoin="round"/>
<path d="M231.708 99.8823C235.291 90.5365 242.017 89.5036 242.017 89.5036L249.233 116.466L257.04 142.678L247.102 160.126C247.102 160.126 238.556 134.76 237.573 127.803C236.591 120.846 231.708 99.8823 231.708 99.8823Z" fill="#1A80FD"/>
<mask id="mask16_23_26" style="mask-type:luminance" maskUnits="userSpaceOnUse" x="231" y="89" width="27" height="72">
<path fill-rule="evenodd" clip-rule="evenodd" d="M231.708 99.8823C235.291 90.5365 242.017 89.5036 242.017 89.5036L249.233 116.466L257.04 142.678L247.102 160.126C247.102 160.126 238.556 134.76 237.573 127.803C236.591 120.846 231.708 99.8823 231.708 99.8823Z" fill="white"/>
</mask>
<g mask="url(#mask16_23_26)">
<path d="M253.966 144.693C246.317 150.94 245.268 160.636 244.775 165.723C244.282 170.81 249.401 166.853 249.401 166.853L253.966 144.693Z" fill="#ED707B"/>
<path d="M231.927 136.776C244.144 150.864 246.65 148.494 248.75 145.544C250.851 142.594 252.412 160.126 252.412 160.126L246.453 166.226L235.875 156.571L232.15 147.707" fill="#1D62FC"/>
<path d="M228.794 110.456C233.722 100.533 238.807 92.8399 246.278 92.6749C253.748 92.5099 244.37 87.259 244.37 87.259L227.522 91.396" fill="white"/>
<path d="M228.794 110.456C233.722 100.533 238.807 92.8399 246.278 92.6749C253.748 92.5099 244.37 87.259 244.37 87.259L227.522 91.396" stroke="black" stroke-width="1.6" stroke-linecap="round" stroke-linejoin="round"/>
</g>
<path fill-rule="evenodd" clip-rule="evenodd" d="M231.708 99.8823C235.291 90.5365 242.017 89.5036 242.017 89.5036L249.233 116.466L257.04 142.678L247.102 160.126C247.102 160.126 238.556 134.76 237.573 127.803C236.591 120.846 231.708 99.8823 231.708 99.8823Z" stroke="black" stroke-width="1.6" stroke-linecap="round" stroke-linejoin="round"/>
<path d="M256.618 142.002L271.908 140.759C278.708 160.126 272.415 195.671 272.415 195.671C264.37 195.909 233.746 171.925 238.749 172.4C238.749 172.4 247.549 169.544 246.208 155.773C245.608 149.61 247.63 146.205 250.048 144.324" fill="#1A80FD"/>
<mask id="mask17_23_26" style="mask-type:luminance" maskUnits="userSpaceOnUse" x="238" y="140" width="38" height="56">
<path fill-rule="evenodd" clip-rule="evenodd" d="M256.618 142.002L271.908 140.759C278.708 160.126 272.415 195.671 272.415 195.671C264.37 195.909 233.746 171.925 238.749 172.4C238.749 172.4 247.549 169.544 246.208 155.773C245.608 149.61 247.63 146.205 250.048 144.324" fill="white"/>
</mask>
<g mask="url(#mask17_23_26)">
<path d="M239.073 157.951C233.382 172.774 270.305 198.674 273.166 175.169C276.027 151.664 277.452 198.327 277.074 199.925C276.697 201.523 262.101 211.48 262.101 211.48L230.438 185.141C230.438 185.141 231.332 166.059 231.555 164.441C231.779 162.823 239.073 157.951 239.073 157.951Z" fill="#1D62FC"/>
<path d="M254.718 148.785C252.688 153.983 257.039 164.696 257.039 164.696L261.801 163.105C261.801 163.105 253.827 152.338 255.694 148.466L254.718 148.785Z" fill="white" stroke="black" stroke-width="1.6" stroke-linecap="round" stroke-linejoin="round"/>
<path d="M257.04 147.3C257.033 150.8 262.742 152 262.742 152V153.876C262.742 153.876 254.841 150.906 254.718 148.785C254.595 146.663 257.04 147.3 257.04 147.3Z" fill="white" stroke="black" stroke-width="1.6" stroke-linecap="round" stroke-linejoin="round"/>
<path d="M256.761 138.548L254.718 140.033L253.641 150.306L269.47 142.844V138.349" fill="white"/>
<path d="M256.761 138.548L254.718 140.033L253.641 150.306L269.47 142.844V138.349" stroke="black" stroke-width="1.6" stroke-linecap="round" stroke-linejoin="round"/>
<path d="M240.873 164.431C230.542 171.273 267.618 189.094 275.067 188.617C282.516 188.14 279.49 197.528 279.49 197.528C279.49 197.528 261.535 199.618 261.059 199.925C260.582 200.233 238.893 173.908 238.893 173.908L235.151 171.273L237.535 168.216" fill="white"/>
<path d="M240.873 164.431C230.542 171.273 267.618 189.094 275.067 188.617C282.516 188.14 279.49 197.528 279.49 197.528C279.49 197.528 261.535 199.618 261.059 199.925C260.582 200.233 238.893 173.908 238.893 173.908L235.151 171.273L237.535 168.216" stroke="black" stroke-width="1.6" stroke-linecap="round" stroke-linejoin="round"/>
</g>
<path d="M256.618 142.002L271.908 140.759C278.708 160.126 272.415 195.671 272.415 195.671C264.37 195.909 233.746 171.925 238.749 172.4C238.749 172.4 247.549 169.544 246.208 155.773C245.608 149.61 247.63 146.205 250.048 144.324" stroke="black" stroke-width="1.6" stroke-linecap="round" stroke-linejoin="round"/>
<path d="M260.138 129.229L256.068 146.898L267.265 141.136L269.416 124.762L260.138 129.229Z" fill="#F9C1BB"/>
<mask id="mask18_23_26" style="mask-type:luminance" maskUnits="userSpaceOnUse" x="256" y="124" width="14" height="23">
<path fill-rule="evenodd" clip-rule="evenodd" d="M260.138 129.229L256.068 146.898L267.265 141.136L269.416 124.762L260.138 129.229Z" fill="white"/>
</mask>
<g mask="url(#mask18_23_26)">
<path d="M256.618 142.003C260.072 143.091 263.37 134.941 263.37 134.941L254.984 131.556V138.441" fill="#ED707B"/>
</g>
<path fill-rule="evenodd" clip-rule="evenodd" d="M260.138 129.229L256.068 146.898L267.265 141.136L269.416 124.762L260.138 129.229V129.229Z" stroke="black" stroke-width="1.6" stroke-linecap="round" stroke-linejoin="round"/>
<path d="M271.344 125.742C271.753 124.783 272.11 123.803 272.414 122.807L257.666 117.189C257.156 119.597 250.163 134.082 259.655 135.247C261.262 135.444 262.716 135.243 264.032 134.701" fill="#F9C1BB"/>
<mask id="mask19_23_26" style="mask-type:luminance" maskUnits="userSpaceOnUse" x="254" y="117" width="19" height="19">
<path fill-rule="evenodd" clip-rule="evenodd" d="M271.344 125.742C271.753 124.783 272.11 123.803 272.414 122.807L257.666 117.189C257.156 119.597 250.163 134.082 259.655 135.247C261.262 135.444 262.716 135.243 264.032 134.701" fill="white"/>
</mask>
<g mask="url(#mask19_23_26)">
<ellipse opacity="0.27" cx="252.189" cy="128.328" rx="2.58716" ry="1.91988" transform="rotate(-9.46797 252.189 128.328)" fill="#ED707B"/>
<path d="M261.67 122.807C262.917 123.533 262.481 124.143 261.672 123.741C260.863 123.338 260.856 122.333 261.67 122.807Z" fill="black"/>
</g>
<path d="M271.344 125.742C271.753 124.783 272.11 123.803 272.414 122.807L257.666 117.189C257.156 119.597 250.163 134.082 259.655 135.247C261.262 135.444 262.716 135.243 264.032 134.701" stroke="black" stroke-width="1.6" stroke-linecap="round" stroke-linejoin="round"/>
<path d="M269.47 128.697C271.511 128.697 273.165 126.94 273.165 124.772C273.165 124.701 273.149 124.636 273.146 124.566C273.877 123.463 274.265 122.169 274.261 120.846C274.261 117.987 272.511 115.566 270.088 114.715C268.933 112.551 266.748 111.087 264.238 111.087" fill="#FDD504"/>
<path d="M264.239 111.087C260.524 111.087 257.513 114.286 257.513 118.233C257.513 122.034 260.308 125.132 263.833 125.357C264.547 126.139 265.454 126.72 266.463 127.04C267.133 128.04 268.227 128.697 269.471 128.697" fill="#FDD504"/>
<path d="M264.239 111.087C260.524 111.087 257.513 114.286 257.513 118.233C257.513 122.034 260.308 125.132 263.833 125.357C264.547 126.139 265.454 126.72 266.463 127.04C267.133 128.04 268.227 128.697 269.471 128.697" stroke="black" stroke-width="1.6" stroke-linecap="round" stroke-linejoin="round"/>
<path d="M265.433 127.815C265.964 127.116 266.716 126.619 267.567 126.404C269.35 125.928 271.071 126.707 271.41 128.142C271.749 129.578 270.578 131.127 268.795 131.603C268.244 131.754 267.666 131.782 267.103 131.686" fill="#F9C1BB"/>
<path d="M265.433 127.815C265.964 127.116 266.716 126.619 267.567 126.404C269.35 125.928 271.071 126.707 271.41 128.142C271.749 129.578 270.578 131.127 268.795 131.603C268.244 131.754 267.666 131.782 267.103 131.686" stroke="black" stroke-width="1.6" stroke-linecap="round" stroke-linejoin="round"/>
<path d="M300.317 80.3881C302.8 80.1545 298.144 89.7689 298.144 89.7689C298.144 89.7689 300.938 93.3841 300.73 94.9972C300.521 96.6102 295.169 104.966 295.169 104.966L290.36 101.994L300.317 80.3881Z" fill="#F9C1BB"/>
<mask id="mask20_23_26" style="mask-type:luminance" maskUnits="userSpaceOnUse" x="290" y="80" width="12" height="25">
<path fill-rule="evenodd" clip-rule="evenodd" d="M300.317 80.3881C302.8 80.1545 298.144 89.7689 298.144 89.7689C298.144 89.7689 300.938 93.3841 300.73 94.9972C300.521 96.6102 295.169 104.966 295.169 104.966L290.36 101.994L300.317 80.3881Z" fill="white"/>
</mask>
<g mask="url(#mask20_23_26)">
<path d="M291.955 96.6536C296.008 98.2713 298.419 100.419 299.187 99.5177C299.955 98.616 298.843 101.162 298.843 101.162L296.459 101.745L293.783 99.889L292.962 98.616" fill="#ED707B"/>
</g>
<path fill-rule="evenodd" clip-rule="evenodd" d="M300.317 80.3881C302.8 80.1545 298.144 89.7689 298.144 89.7689C298.144 89.7689 300.938 93.3841 300.73 94.9972C300.521 96.6102 295.169 104.966 295.169 104.966L290.36 101.994L300.317 80.3881Z" stroke="black" stroke-width="1.6" stroke-linecap="round" stroke-linejoin="round"/>
<path d="M265.725 144.939L278.462 125.547L292.404 96.2981C298.107 100.188 301.045 107.524 301.045 107.524L288.605 134.484L273.166 161.709" fill="#1A80FD"/>
<mask id="mask21_23_26" style="mask-type:luminance" maskUnits="userSpaceOnUse" x="265" y="96" width="37" height="66">
<path fill-rule="evenodd" clip-rule="evenodd" d="M265.725 144.939L278.462 125.547L292.404 96.2981C298.107 100.188 301.045 107.524 301.045 107.524L288.605 134.484L273.166 161.709" fill="white"/>
</mask>
<g mask="url(#mask21_23_26)">
<path d="M288.079 99.5641C292.105 98.8216 299.523 112.612 299.523 112.612L303.549 108.369L292.794 93.3055L286.119 96.0635" fill="white"/>
<path d="M288.079 99.5641C292.105 98.8216 299.523 112.612 299.523 112.612L303.549 108.369L292.794 93.3055L286.119 96.0635" stroke="black" stroke-width="1.6" stroke-linecap="round" stroke-linejoin="round"/>
</g>
<path d="M265.725 144.939L278.462 125.547L292.404 96.2981C298.107 100.188 301.045 107.524 301.045 107.524L288.605 134.484L273.166 161.709" stroke="black" stroke-width="1.6" stroke-linecap="round" stroke-linejoin="round"/>
<path d="M254.349 142.738C256.415 142.181 257.039 142.095 257.039 142.095L254.349 142.738Z" fill="#1A80FD"/>
<path d="M254.349 142.738C256.415 142.181 257.039 142.095 257.039 142.095" stroke="black" stroke-width="1.6" stroke-linecap="round" stroke-linejoin="round"/>
<ellipse cx="253.151" cy="152" rx="0.7725" ry="0.77335" fill="black"/>
<ellipse cx="252.198" cy="156.137" rx="0.7725" ry="0.77335" fill="black"/>
<path d="M267.013 117.337C267.374 117.772 267.891 118.047 268.452 118.104" stroke="black" stroke-width="1.6" stroke-linecap="round" stroke-linejoin="round"/>
<path d="M255.175 174.937C256.303 175.734 257.619 176.223 258.993 176.358" stroke="black" stroke-width="1.6" stroke-linecap="round" stroke-linejoin="round"/>
<path d="M185.084 157.271L184.766 158.862" stroke="black" stroke-width="1.6" stroke-linecap="round" stroke-linejoin="round"/>
<path d="M157.428 187.821L161.879 189.094" stroke="black" stroke-width="1.6" stroke-linecap="round" stroke-linejoin="round"/>
<path d="M250.295 244.93L250.944 244.842C250.944 244.842 252.491 240.809 251.643 238.387L250.046 239.46L250.229 243.339" fill="#1A80FD"/>
<path d="M250.295 244.93L250.944 244.842C250.944 244.842 252.491 240.809 251.643 238.387L250.046 239.46L250.229 243.339" stroke="black" stroke-width="1.6" stroke-linecap="round" stroke-linejoin="round"/>
<path d="M220.975 264.226L220.409 265.458L220.592 266.838L250.944 244.842V243.681L249.347 242.232L220.975 264.226Z" fill="#1A80FD" stroke="black" stroke-width="1.6" stroke-linecap="round" stroke-linejoin="round"/>
<path d="M166.726 235.157L164.73 235.29V236.688L220.593 266.838L220.41 265.458V262.528" fill="#1A80FD"/>
<path d="M166.726 235.157L164.73 235.29V236.688L220.593 266.838L220.41 265.458V262.528" stroke="black" stroke-width="1.6" stroke-linecap="round" stroke-linejoin="round"/>
<path d="M164.73 235.29C164.73 235.29 180.297 217.708 201.252 219.906L250.944 243.681L220.41 265.458L164.73 235.29Z" fill="#1A80FD"/>
<mask id="mask22_23_26" style="mask-type:luminance" maskUnits="userSpaceOnUse" x="164" y="219" width="87" height="47">
<path fill-rule="evenodd" clip-rule="evenodd" d="M164.73 235.29C164.73 235.29 180.297 217.708 201.252 219.906L250.944 243.681L220.41 265.458L164.73 235.29Z" fill="white"/>
</mask>
<g mask="url(#mask22_23_26)">
<path d="M173.11 234.086C169.253 233.558 221.222 261.674 219.925 263.405C218.629 265.137 230.769 257.652 226.195 254.535C221.622 251.418 207.836 246.821 207.836 246.821" fill="#1D62FC"/>
</g>
<path fill-rule="evenodd" clip-rule="evenodd" d="M164.73 235.29C164.73 235.29 180.297 217.708 201.252 219.906L250.944 243.681L220.41 265.458L164.73 235.29Z" stroke="black" stroke-width="1.6" stroke-linecap="round" stroke-linejoin="round"/>
<path d="M242.562 242.587L250.944 243.681L251.642 238.387L236.874 232.093L242.562 242.587Z" fill="#1A80FD" stroke="black" stroke-width="1.6" stroke-linecap="round" stroke-linejoin="round"/>
<path d="M250.971 239.385L251.896 238.986C251.896 238.986 267.308 222.004 293.386 223.902L293.577 223.152L278.883 221.504L254.436 226.099L249.547 236.488L250.971 239.385Z" fill="#1A80FD" stroke="black" stroke-width="1.6" stroke-linecap="round" stroke-linejoin="round"/>
<path d="M248.549 238.287L251.643 238.387C251.643 238.387 266.735 220.955 293.577 223.153L269.504 212.214L236.874 222.237L230.588 230.362L248.549 238.287Z" fill="#1A80FD" stroke="black" stroke-width="1.6" stroke-linecap="round" stroke-linejoin="round"/>
<path d="M174.442 225.3L169.918 227.165C169.918 227.165 170.583 231.294 169.253 233.558L220.665 262.002L220.335 253.301L174.442 225.3Z" fill="white"/>
<mask id="mask23_23_26" style="mask-type:luminance" maskUnits="userSpaceOnUse" x="169" y="225" width="52" height="38">
<path fill-rule="evenodd" clip-rule="evenodd" d="M174.442 225.3L169.918 227.165C169.918 227.165 170.583 231.294 169.253 233.558L220.665 262.002L220.335 253.301L174.442 225.3Z" fill="white"/>
</mask>
<g mask="url(#mask23_23_26)">
<path d="M166.69 228.215L187.545 239.385L166.391 229.091L166.69 228.215Z" fill="#D6DCF2"/>
</g>
<path fill-rule="evenodd" clip-rule="evenodd" d="M174.442 225.3L169.918 227.165C169.918 227.165 170.583 231.294 169.253 233.558L220.665 262.002L220.335 253.301L174.442 225.3Z" stroke="black" stroke-width="1.6" stroke-linecap="round" stroke-linejoin="round"/>
<path d="M281.427 217.134L288.927 222.049C288.927 222.049 267.491 219.716 251.896 238.986L249.798 243.133L243.892 237.026L244.258 232.168L254.403 219.716L265.712 218.174" fill="white"/>
<path d="M281.427 217.134L288.927 222.049C288.927 222.049 267.491 219.716 251.896 238.986L249.798 243.133L243.892 237.026L244.258 232.168L254.403 219.716L265.712 218.174" stroke="black" stroke-width="1.6" stroke-linecap="round" stroke-linejoin="round"/>
<path d="M222.472 244.214L220.134 253.602L220.666 262.002L249.798 243.133L248.248 239.385L227.694 238.387L222.472 244.214Z" fill="white" stroke="black" stroke-width="1.6" stroke-linecap="round" stroke-linejoin="round"/>
<path d="M206.373 215.71C206.373 215.71 186.017 205.588 169.918 227.165L220.335 253.301C220.335 253.301 230.952 239.552 248.248 239.386L206.373 215.71Z" fill="white" stroke="black" stroke-width="1.6" stroke-linecap="round" stroke-linejoin="round"/>
<path d="M236.309 190.936C231.785 197.196 210.497 196.664 206.373 215.71L248.248 239.385C248.248 239.385 267.404 216.295 281.773 217.36L236.309 190.936Z" fill="white"/>
<mask id="mask24_23_26" style="mask-type:luminance" maskUnits="userSpaceOnUse" x="206" y="190" width="76" height="50">
<path fill-rule="evenodd" clip-rule="evenodd" d="M236.309 190.936C231.785 197.196 210.497 196.664 206.373 215.71L248.248 239.385C248.248 239.385 267.404 216.295 281.773 217.36L236.309 190.936Z" fill="white"/>
</mask>
<g mask="url(#mask24_23_26)">
<path d="M209.234 206.715C206.373 215.71 239.234 228.395 238.436 233.838C237.638 239.281 198.908 219.743 198.908 219.743V199.522" fill="#D6DCF2"/>
</g>
<path fill-rule="evenodd" clip-rule="evenodd" d="M236.309 190.936C231.785 197.196 210.497 196.664 206.373 215.71L248.248 239.385C248.248 239.385 267.404 216.295 281.773 217.36V217.36L236.309 190.936Z" stroke="black" stroke-width="1.6" stroke-linecap="round" stroke-linejoin="round"/>
<path d="M169.918 217.703C169.918 217.703 186.285 206.525 206.373 215.71L248.248 239.385C248.248 239.385 227.127 233.154 217.015 244.342L169.918 217.703Z" fill="white"/>
<mask id="mask25_23_26" style="mask-type:luminance" maskUnits="userSpaceOnUse" x="169" y="212" width="80" height="33">
<path fill-rule="evenodd" clip-rule="evenodd" d="M169.918 217.703C169.918 217.703 186.285 206.525 206.373 215.71L248.248 239.385C248.248 239.385 227.127 233.154 217.015 244.342L169.918 217.703Z" fill="white"/>
</mask>
<g mask="url(#mask25_23_26)">
<path d="M178.879 217.892L195.654 227.288C195.654 227.288 202.147 222.696 215.331 222.561L204.954 216.396C204.954 216.396 192.46 211.638 178.879 217.892Z" fill="#D6DCF2"/>
</g>
<path fill-rule="evenodd" clip-rule="evenodd" d="M169.918 217.703C169.918 217.703 186.285 206.525 206.373 215.71L248.248 239.385C248.248 239.385 227.127 233.154 217.015 244.342L169.918 217.703Z" stroke="black" stroke-width="1.6" stroke-linecap="round" stroke-linejoin="round"/>
<path d="M198.841 230.368L199.973 230.976C199.973 230.976 208.845 224.488 216.804 224.407L215.803 223.728C215.803 223.728 206.014 224.891 198.841 230.368Z" fill="#D6DCF2"/>
<path d="M203.142 232.963L204.273 233.571C204.273 233.571 213.145 227.083 221.104 227.002L220.103 226.323C220.103 226.323 210.314 227.486 203.142 232.963Z" fill="#D6DCF2"/>
<path d="M207.177 235.497L208.308 236.105C208.308 236.105 217.18 229.617 225.139 229.536L224.139 228.857C224.139 228.857 214.35 230.02 207.177 235.497Z" fill="#D6DCF2"/>
<path d="M199.051 222.022L197.846 222.323" stroke="black" stroke-width="1.6" stroke-linecap="round" stroke-linejoin="round"/>
<path d="M243.567 215.04L244.794 213.552" stroke="black" stroke-width="1.6" stroke-linecap="round" stroke-linejoin="round"/>
<path d="M235.424 247.054C234.966 247.44 234.421 247.708 233.835 247.835" stroke="black" stroke-width="1.6" stroke-linecap="round" stroke-linejoin="round"/>
</g>
</svg>
